<svg id="svg" version="1.1" xmlns="http://www.w3.org/2000/svg" xmlns:xlink="http://www.w3.org/1999/xlink" width="256" height="256" viewBox="0, 0, 400,400"><g id="libreddit"><path id="path0" d="M113.862 73.931 C 113.060 74.818,112.815 324.532,113.614 326.026 C 114.128 326.986,285.363 327.277,286.320 326.320 C 287.033 325.607,287.013 269.785,286.300 269.324 C 286.025 269.146,259.610 268.910,227.600 268.800 L 169.400 268.600 169.299 171.631 C 169.206 82.095,169.148 74.605,168.537 73.931 C 167.509 72.794,114.890 72.795,113.862 73.931 " stroke="none" fill="#fcfcfc" fill-rule="evenodd"></path><path id="path1" d="M189.214 76.374 C 188.356 77.978,188.669 247.757,189.531 248.538 C 190.531 249.443,238.799 249.566,239.546 248.665 C 239.866 248.280,240.019 231.327,240.095 188.033 C 240.198 129.068,240.215 127.925,240.976 127.368 C 241.625 126.894,245.391 126.800,263.796 126.800 C 280.408 126.800,285.958 126.682,286.320 126.320 C 287.013 125.627,287.013 76.773,286.320 76.080 C 285.366 75.126,189.727 75.415,189.214 76.374 " stroke="none" fill="#04fcfc" fill-rule="evenodd"></path><path id="path2" d="M0.000 200.000 L 0.000 400.000 200.000 400.000 L 400.000 400.000 400.000 200.000 L 400.000 0.000 200.000 0.000 L 0.000 0.000 0.000 200.000 M168.537 73.931 C 169.148 74.605,169.206 82.095,169.299 171.631 L 169.400 268.600 227.600 268.800 C 259.610 268.910,286.025 269.146,286.300 269.324 C 287.013 269.785,287.033 325.607,286.320 326.320 C 285.363 327.277,114.128 326.986,113.614 326.026 C 112.815 324.532,113.060 74.818,113.862 73.931 C 114.890 72.795,167.509 72.794,168.537 73.931 M286.320 76.080 C 287.013 76.773,287.013 125.627,286.320 126.320 C 285.958 126.682,280.408 126.800,263.796 126.800 C 245.391 126.800,241.625 126.894,240.976 127.368 C 240.215 127.925,240.198 129.068,240.095 188.033 C 240.019 231.327,239.866 248.280,239.546 248.665 C 238.799 249.566,190.531 249.443,189.531 248.538 C 188.669 247.757,188.356 77.978,189.214 76.374 C 189.727 75.415,285.366 75.126,286.320 76.080 " stroke="none" fill="#1c1c1c" fill-rule="evenodd"></path></g></svg>